<mxfile host="app.diagrams.net" modified="2021-09-07T03:10:06.582Z" agent="5.0 (Windows NT 10.0; Win64; x64) AppleWebKit/537.36 (KHTML, like Gecko) Chrome/92.0.4515.159 Safari/537.36" etag="4ikoQbRQoDBDHqzuM01Z" version="15.0.6" type="github">
  <diagram id="pXMWOtE3sICo_lijbzG-" name="Page-1">
    <mxGraphModel dx="2842" dy="934" grid="1" gridSize="12" guides="1" tooltips="1" connect="1" arrows="1" fold="1" page="1" pageScale="1" pageWidth="1169" pageHeight="1654" math="0" shadow="0">
      <root>
        <mxCell id="0" />
        <mxCell id="1" parent="0" />
        <mxCell id="ZI3P5AqrQ_ysWgxv9n3D-101" style="edgeStyle=orthogonalEdgeStyle;rounded=0;orthogonalLoop=1;jettySize=auto;html=1;exitX=0.5;exitY=1;exitDx=0;exitDy=0;entryX=0.5;entryY=0;entryDx=0;entryDy=0;" parent="1" source="LSy2s_8_X8NUVeBGEPmz-9" target="LSy2s_8_X8NUVeBGEPmz-21" edge="1">
          <mxGeometry relative="1" as="geometry" />
        </mxCell>
        <mxCell id="ZI3P5AqrQ_ysWgxv9n3D-109" style="edgeStyle=orthogonalEdgeStyle;rounded=0;orthogonalLoop=1;jettySize=auto;html=1;exitX=0.5;exitY=1;exitDx=0;exitDy=0;entryX=0.5;entryY=0;entryDx=0;entryDy=0;" parent="1" source="LSy2s_8_X8NUVeBGEPmz-9" target="LSy2s_8_X8NUVeBGEPmz-20" edge="1">
          <mxGeometry relative="1" as="geometry" />
        </mxCell>
        <mxCell id="LSy2s_8_X8NUVeBGEPmz-9" value="回合开始" style="rounded=0;whiteSpace=wrap;html=1;strokeWidth=5;" parent="1" vertex="1">
          <mxGeometry x="1620" y="39" width="120" height="60" as="geometry" />
        </mxCell>
        <mxCell id="ZI3P5AqrQ_ysWgxv9n3D-106" style="edgeStyle=orthogonalEdgeStyle;rounded=0;orthogonalLoop=1;jettySize=auto;html=1;exitX=0.5;exitY=1;exitDx=0;exitDy=0;" parent="1" source="LSy2s_8_X8NUVeBGEPmz-19" target="ZI3P5AqrQ_ysWgxv9n3D-20" edge="1">
          <mxGeometry relative="1" as="geometry" />
        </mxCell>
        <mxCell id="LSy2s_8_X8NUVeBGEPmz-19" value="攻击型" style="rounded=1;whiteSpace=wrap;html=1;strokeWidth=5;" parent="1" vertex="1">
          <mxGeometry x="204" y="372" width="120" height="60" as="geometry" />
        </mxCell>
        <mxCell id="LSy2s_8_X8NUVeBGEPmz-34" value="" style="edgeStyle=orthogonalEdgeStyle;rounded=0;orthogonalLoop=1;jettySize=auto;html=1;" parent="1" source="LSy2s_8_X8NUVeBGEPmz-20" target="LSy2s_8_X8NUVeBGEPmz-33" edge="1">
          <mxGeometry relative="1" as="geometry" />
        </mxCell>
        <mxCell id="ZI3P5AqrQ_ysWgxv9n3D-34" style="edgeStyle=orthogonalEdgeStyle;rounded=0;orthogonalLoop=1;jettySize=auto;html=1;exitX=0.5;exitY=1;exitDx=0;exitDy=0;" parent="1" source="LSy2s_8_X8NUVeBGEPmz-20" target="LSy2s_8_X8NUVeBGEPmz-35" edge="1">
          <mxGeometry relative="1" as="geometry" />
        </mxCell>
        <mxCell id="LSy2s_8_X8NUVeBGEPmz-20" value="功能型" style="rounded=1;whiteSpace=wrap;html=1;strokeWidth=5;" parent="1" vertex="1">
          <mxGeometry x="3696" y="144" width="120" height="60" as="geometry" />
        </mxCell>
        <mxCell id="ZI3P5AqrQ_ysWgxv9n3D-102" style="edgeStyle=orthogonalEdgeStyle;rounded=0;orthogonalLoop=1;jettySize=auto;html=1;exitX=0.5;exitY=1;exitDx=0;exitDy=0;entryX=0.5;entryY=0;entryDx=0;entryDy=0;" parent="1" source="LSy2s_8_X8NUVeBGEPmz-21" target="LSy2s_8_X8NUVeBGEPmz-25" edge="1">
          <mxGeometry relative="1" as="geometry" />
        </mxCell>
        <mxCell id="LSy2s_8_X8NUVeBGEPmz-21" value="当目标进入到自身或者友军攻击范围内" style="whiteSpace=wrap;html=1;rounded=1;strokeWidth=5;" parent="1" vertex="1">
          <mxGeometry x="1109" y="144" width="144" height="76" as="geometry" />
        </mxCell>
        <mxCell id="ZI3P5AqrQ_ysWgxv9n3D-103" style="edgeStyle=orthogonalEdgeStyle;rounded=0;orthogonalLoop=1;jettySize=auto;html=1;exitX=0.5;exitY=1;exitDx=0;exitDy=0;entryX=0.5;entryY=0;entryDx=0;entryDy=0;" parent="1" source="LSy2s_8_X8NUVeBGEPmz-25" target="LSy2s_8_X8NUVeBGEPmz-19" edge="1">
          <mxGeometry relative="1" as="geometry" />
        </mxCell>
        <mxCell id="ZI3P5AqrQ_ysWgxv9n3D-104" style="edgeStyle=orthogonalEdgeStyle;rounded=0;orthogonalLoop=1;jettySize=auto;html=1;exitX=0.5;exitY=1;exitDx=0;exitDy=0;entryX=0.425;entryY=0;entryDx=0;entryDy=0;entryPerimeter=0;" parent="1" source="LSy2s_8_X8NUVeBGEPmz-25" target="ZI3P5AqrQ_ysWgxv9n3D-96" edge="1">
          <mxGeometry relative="1" as="geometry" />
        </mxCell>
        <mxCell id="ZI3P5AqrQ_ysWgxv9n3D-105" style="edgeStyle=orthogonalEdgeStyle;rounded=0;orthogonalLoop=1;jettySize=auto;html=1;exitX=0.5;exitY=1;exitDx=0;exitDy=0;entryX=0.5;entryY=0;entryDx=0;entryDy=0;" parent="1" source="LSy2s_8_X8NUVeBGEPmz-25" target="1SJ8d1pmAY6MuEb-5NBz-37" edge="1">
          <mxGeometry relative="1" as="geometry" />
        </mxCell>
        <mxCell id="LSy2s_8_X8NUVeBGEPmz-25" value="进入战斗" style="whiteSpace=wrap;html=1;rounded=1;strokeWidth=5;" parent="1" vertex="1">
          <mxGeometry x="1121" y="264" width="120" height="60" as="geometry" />
        </mxCell>
        <mxCell id="ZI3P5AqrQ_ysWgxv9n3D-91" value="" style="edgeStyle=orthogonalEdgeStyle;rounded=0;orthogonalLoop=1;jettySize=auto;html=1;" parent="1" source="LSy2s_8_X8NUVeBGEPmz-33" target="ZI3P5AqrQ_ysWgxv9n3D-90" edge="1">
          <mxGeometry relative="1" as="geometry" />
        </mxCell>
        <mxCell id="LSy2s_8_X8NUVeBGEPmz-33" value="逃跑" style="whiteSpace=wrap;html=1;rounded=1;strokeWidth=5;" parent="1" vertex="1">
          <mxGeometry x="3576" y="276" width="120" height="60" as="geometry" />
        </mxCell>
        <mxCell id="ZI3P5AqrQ_ysWgxv9n3D-95" style="edgeStyle=orthogonalEdgeStyle;rounded=0;orthogonalLoop=1;jettySize=auto;html=1;exitX=0.5;exitY=1;exitDx=0;exitDy=0;entryX=0.5;entryY=0;entryDx=0;entryDy=0;" parent="1" source="LSy2s_8_X8NUVeBGEPmz-35" target="ZI3P5AqrQ_ysWgxv9n3D-94" edge="1">
          <mxGeometry relative="1" as="geometry" />
        </mxCell>
        <mxCell id="LSy2s_8_X8NUVeBGEPmz-35" value="表演" style="whiteSpace=wrap;html=1;rounded=1;strokeWidth=5;" parent="1" vertex="1">
          <mxGeometry x="3840" y="276" width="120" height="60" as="geometry" />
        </mxCell>
        <mxCell id="1SJ8d1pmAY6MuEb-5NBz-12" value="" style="edgeStyle=orthogonalEdgeStyle;rounded=0;orthogonalLoop=1;jettySize=auto;html=1;" parent="1" source="1SJ8d1pmAY6MuEb-5NBz-1" target="1SJ8d1pmAY6MuEb-5NBz-11" edge="1">
          <mxGeometry relative="1" as="geometry" />
        </mxCell>
        <mxCell id="1SJ8d1pmAY6MuEb-5NBz-31" value="" style="edgeStyle=orthogonalEdgeStyle;rounded=0;orthogonalLoop=1;jettySize=auto;html=1;" parent="1" source="1SJ8d1pmAY6MuEb-5NBz-1" target="1SJ8d1pmAY6MuEb-5NBz-30" edge="1">
          <mxGeometry relative="1" as="geometry" />
        </mxCell>
        <mxCell id="1SJ8d1pmAY6MuEb-5NBz-1" value="检查自己可用的技能" style="whiteSpace=wrap;html=1;rounded=1;strokeWidth=2;" parent="1" vertex="1">
          <mxGeometry x="-624" y="912" width="120" height="60" as="geometry" />
        </mxCell>
        <mxCell id="1SJ8d1pmAY6MuEb-5NBz-5" value="&lt;h2&gt;&lt;font color=&quot;#33001a&quot; style=&quot;font-size: 14px ; font-weight: normal&quot;&gt;可用技能定义：不处于CD中的技能，包括普通攻击&lt;/font&gt;&lt;/h2&gt;" style="text;html=1;strokeColor=#6c8ebf;fillColor=#dae8fc;spacing=5;spacingTop=-20;whiteSpace=wrap;overflow=hidden;rounded=1;shadow=1;" parent="1" vertex="1">
          <mxGeometry x="-840" y="906" width="182" height="72" as="geometry" />
        </mxCell>
        <mxCell id="1SJ8d1pmAY6MuEb-5NBz-15" value="" style="edgeStyle=orthogonalEdgeStyle;rounded=0;orthogonalLoop=1;jettySize=auto;html=1;" parent="1" source="1SJ8d1pmAY6MuEb-5NBz-11" target="1SJ8d1pmAY6MuEb-5NBz-14" edge="1">
          <mxGeometry relative="1" as="geometry" />
        </mxCell>
        <mxCell id="1SJ8d1pmAY6MuEb-5NBz-11" value="检查每个可攻击目标的状态" style="whiteSpace=wrap;html=1;rounded=1;strokeWidth=2;" parent="1" vertex="1">
          <mxGeometry x="-624" y="1233" width="120" height="60" as="geometry" />
        </mxCell>
        <mxCell id="1SJ8d1pmAY6MuEb-5NBz-13" value="&lt;h2&gt;&lt;font color=&quot;#33001a&quot; style=&quot;font-size: 14px&quot;&gt;目前只检测血量&lt;/font&gt;&lt;/h2&gt;" style="text;html=1;strokeColor=#6c8ebf;fillColor=#dae8fc;spacing=5;spacingTop=-20;whiteSpace=wrap;overflow=hidden;rounded=0;" parent="1" vertex="1">
          <mxGeometry x="-800" y="1227" width="132" height="72" as="geometry" />
        </mxCell>
        <mxCell id="1SJ8d1pmAY6MuEb-5NBz-19" value="" style="edgeStyle=orthogonalEdgeStyle;rounded=0;orthogonalLoop=1;jettySize=auto;html=1;" parent="1" source="1SJ8d1pmAY6MuEb-5NBz-14" edge="1">
          <mxGeometry relative="1" as="geometry">
            <mxPoint x="-336" y="1530" as="targetPoint" />
          </mxGeometry>
        </mxCell>
        <mxCell id="ZI3P5AqrQ_ysWgxv9n3D-51" value="" style="edgeStyle=orthogonalEdgeStyle;rounded=0;orthogonalLoop=1;jettySize=auto;html=1;entryX=0.5;entryY=0;entryDx=0;entryDy=0;" parent="1" source="1SJ8d1pmAY6MuEb-5NBz-14" target="ZI3P5AqrQ_ysWgxv9n3D-53" edge="1">
          <mxGeometry relative="1" as="geometry">
            <mxPoint x="-564.0000000000005" y="1788" as="targetPoint" />
          </mxGeometry>
        </mxCell>
        <mxCell id="1SJ8d1pmAY6MuEb-5NBz-14" value="是否存在一回合能够击杀的目标" style="whiteSpace=wrap;html=1;rounded=1;strokeWidth=2;" parent="1" vertex="1">
          <mxGeometry x="-624" y="1500" width="120" height="60" as="geometry" />
        </mxCell>
        <mxCell id="1SJ8d1pmAY6MuEb-5NBz-17" value="&lt;font style=&quot;font-size: 19px&quot;&gt;是&lt;/font&gt;" style="text;html=1;strokeColor=none;fillColor=none;align=center;verticalAlign=middle;whiteSpace=wrap;rounded=0;" parent="1" vertex="1">
          <mxGeometry x="-492" y="1476" width="108" height="56" as="geometry" />
        </mxCell>
        <mxCell id="1SJ8d1pmAY6MuEb-5NBz-23" value="攻击血量最低的目标&lt;br&gt;完成回合" style="whiteSpace=wrap;html=1;rounded=1;strokeWidth=2;fillColor=#f8cecc;strokeColor=#b85450;" parent="1" vertex="1">
          <mxGeometry x="-336" y="1476" width="120" height="132" as="geometry" />
        </mxCell>
        <mxCell id="1SJ8d1pmAY6MuEb-5NBz-34" value="" style="edgeStyle=orthogonalEdgeStyle;rounded=0;orthogonalLoop=1;jettySize=auto;html=1;" parent="1" source="1SJ8d1pmAY6MuEb-5NBz-30" target="1SJ8d1pmAY6MuEb-5NBz-33" edge="1">
          <mxGeometry relative="1" as="geometry" />
        </mxCell>
        <mxCell id="1SJ8d1pmAY6MuEb-5NBz-30" value="检查自身攻击范围内是否存在目标" style="whiteSpace=wrap;html=1;rounded=1;strokeWidth=2;shadow=1;sketch=0;glass=0;" parent="1" vertex="1">
          <mxGeometry x="-630" y="1044" width="132" height="66" as="geometry" />
        </mxCell>
        <mxCell id="ZI3P5AqrQ_ysWgxv9n3D-3" style="edgeStyle=orthogonalEdgeStyle;rounded=0;orthogonalLoop=1;jettySize=auto;html=1;exitX=1;exitY=0.5;exitDx=0;exitDy=0;entryX=0;entryY=0.5;entryDx=0;entryDy=0;" parent="1" source="1SJ8d1pmAY6MuEb-5NBz-33" target="ZI3P5AqrQ_ysWgxv9n3D-1" edge="1">
          <mxGeometry relative="1" as="geometry" />
        </mxCell>
        <mxCell id="1SJ8d1pmAY6MuEb-5NBz-33" value="朝向距离最近的目标移动" style="whiteSpace=wrap;html=1;rounded=1;shadow=1;strokeWidth=2;glass=0;sketch=0;" parent="1" vertex="1">
          <mxGeometry x="-336" y="1046" width="120" height="60" as="geometry" />
        </mxCell>
        <mxCell id="1SJ8d1pmAY6MuEb-5NBz-35" value="&lt;font style=&quot;font-size: 19px&quot;&gt;是&lt;/font&gt;" style="text;html=1;strokeColor=none;fillColor=none;align=center;verticalAlign=middle;whiteSpace=wrap;rounded=0;" parent="1" vertex="1">
          <mxGeometry x="-588" y="1138" width="108" height="56" as="geometry" />
        </mxCell>
        <mxCell id="1SJ8d1pmAY6MuEb-5NBz-36" value="&lt;font style=&quot;font-size: 19px&quot;&gt;否&lt;/font&gt;" style="text;html=1;strokeColor=none;fillColor=none;align=center;verticalAlign=middle;whiteSpace=wrap;rounded=0;" parent="1" vertex="1">
          <mxGeometry x="-462" y="1020" width="108" height="56" as="geometry" />
        </mxCell>
        <mxCell id="6_bY_sh62_LnZEufbwjD-9" style="edgeStyle=orthogonalEdgeStyle;rounded=0;orthogonalLoop=1;jettySize=auto;html=1;exitX=0.5;exitY=1;exitDx=0;exitDy=0;entryX=0.5;entryY=0;entryDx=0;entryDy=0;" edge="1" parent="1" source="1SJ8d1pmAY6MuEb-5NBz-37" target="6_bY_sh62_LnZEufbwjD-8">
          <mxGeometry relative="1" as="geometry" />
        </mxCell>
        <mxCell id="1SJ8d1pmAY6MuEb-5NBz-37" value="辅助型" style="whiteSpace=wrap;html=1;rounded=0;strokeWidth=5;" parent="1" vertex="1">
          <mxGeometry x="2118.25" y="405" width="120" height="60" as="geometry" />
        </mxCell>
        <mxCell id="ZI3P5AqrQ_ysWgxv9n3D-6" value="" style="edgeStyle=orthogonalEdgeStyle;rounded=0;orthogonalLoop=1;jettySize=auto;html=1;" parent="1" source="ZI3P5AqrQ_ysWgxv9n3D-1" target="ZI3P5AqrQ_ysWgxv9n3D-5" edge="1">
          <mxGeometry relative="1" as="geometry" />
        </mxCell>
        <mxCell id="ZI3P5AqrQ_ysWgxv9n3D-8" value="" style="edgeStyle=orthogonalEdgeStyle;rounded=0;orthogonalLoop=1;jettySize=auto;html=1;" parent="1" source="ZI3P5AqrQ_ysWgxv9n3D-1" edge="1">
          <mxGeometry relative="1" as="geometry">
            <mxPoint x="192" y="1077" as="targetPoint" />
          </mxGeometry>
        </mxCell>
        <mxCell id="ZI3P5AqrQ_ysWgxv9n3D-1" value="&lt;font style=&quot;font-size: 13px&quot;&gt;是否有BUFF技能和回血技能可用&lt;/font&gt;" style="rhombus;whiteSpace=wrap;html=1;shadow=1;rounded=1;strokeWidth=2;" parent="1" vertex="1">
          <mxGeometry x="-103" y="1025.25" width="120" height="103.5" as="geometry" />
        </mxCell>
        <mxCell id="ZI3P5AqrQ_ysWgxv9n3D-2" value="&lt;font style=&quot;font-size: 19px&quot;&gt;否&lt;/font&gt;" style="text;html=1;strokeColor=none;fillColor=none;align=center;verticalAlign=middle;whiteSpace=wrap;rounded=0;" parent="1" vertex="1">
          <mxGeometry x="-36" y="1152" width="108" height="56" as="geometry" />
        </mxCell>
        <mxCell id="ZI3P5AqrQ_ysWgxv9n3D-4" value="&lt;h1&gt;&lt;font style=&quot;font-size: 15px ; font-weight: normal&quot;&gt;策划可配置 敌人和其友军因距离触发的战斗条件&amp;nbsp; 姑且叫&lt;/font&gt;&lt;/h1&gt;&lt;div&gt;&lt;font style=&quot;font-size: 15px ; font-weight: normal&quot;&gt;敌人的感知&lt;/font&gt;&lt;/div&gt;&lt;div&gt;&lt;font style=&quot;font-size: 15px ; font-weight: normal&quot;&gt;&lt;br&gt;&lt;/font&gt;&lt;/div&gt;&lt;div&gt;&lt;font style=&quot;font-size: 15px&quot;&gt;例：触发进入战斗条件是：敌人和他友军距离相隔小于或等 &lt;b&gt;&lt;font color=&quot;#ff0000&quot;&gt;5&lt;/font&gt;&lt;/b&gt; 个单位&lt;/font&gt;&lt;/div&gt;&lt;h1&gt;&lt;font style=&quot;font-size: 15px ; font-weight: normal&quot;&gt;如A敌人和他的友军距离相隔【6】个单位，那么玩家进入到A敌人的攻击范围内，他的友军则不会进入战斗，反之亦然&lt;/font&gt;&lt;/h1&gt;" style="text;html=1;strokeColor=#6c8ebf;fillColor=#dae8fc;spacing=5;spacingTop=-20;whiteSpace=wrap;overflow=hidden;rounded=0;" parent="1" vertex="1">
          <mxGeometry x="679" y="96" width="401" height="228" as="geometry" />
        </mxCell>
        <mxCell id="ZI3P5AqrQ_ysWgxv9n3D-5" value="结束回合" style="whiteSpace=wrap;html=1;fillColor=#f8cecc;strokeColor=#b85450;shadow=1;rounded=1;strokeWidth=2;" parent="1" vertex="1">
          <mxGeometry x="-103" y="1233" width="120" height="60" as="geometry" />
        </mxCell>
        <mxCell id="ZI3P5AqrQ_ysWgxv9n3D-11" value="" style="edgeStyle=orthogonalEdgeStyle;rounded=0;orthogonalLoop=1;jettySize=auto;html=1;" parent="1" source="ZI3P5AqrQ_ysWgxv9n3D-19" target="ZI3P5AqrQ_ysWgxv9n3D-10" edge="1">
          <mxGeometry relative="1" as="geometry">
            <mxPoint x="312" y="1077" as="sourcePoint" />
          </mxGeometry>
        </mxCell>
        <mxCell id="ZI3P5AqrQ_ysWgxv9n3D-9" value="&lt;font style=&quot;font-size: 19px&quot;&gt;是&lt;/font&gt;" style="text;html=1;strokeColor=none;fillColor=none;align=center;verticalAlign=middle;whiteSpace=wrap;rounded=0;" parent="1" vertex="1">
          <mxGeometry x="60" y="1021" width="108" height="56" as="geometry" />
        </mxCell>
        <mxCell id="ZI3P5AqrQ_ysWgxv9n3D-10" value="对附近血量损失百分比最多的友军（包括自己）释放，如都满血则直接结束回合" style="whiteSpace=wrap;html=1;rounded=1;shadow=1;strokeWidth=2;fillColor=#f8cecc;strokeColor=#b85450;" parent="1" vertex="1">
          <mxGeometry x="431" y="1032.25" width="216" height="81" as="geometry" />
        </mxCell>
        <mxCell id="ZI3P5AqrQ_ysWgxv9n3D-12" value="对附近【攻击】最高的友军释放BUFF，如没有友军则对自身释放" style="whiteSpace=wrap;html=1;shadow=1;rounded=1;fillColor=#f8cecc;strokeColor=#b85450;strokeWidth=2;" parent="1" vertex="1">
          <mxGeometry x="108" y="1212" width="180" height="105" as="geometry" />
        </mxCell>
        <mxCell id="ZI3P5AqrQ_ysWgxv9n3D-14" value="&lt;font style=&quot;font-size: 19px&quot;&gt;否&lt;/font&gt;" style="text;html=1;strokeColor=none;fillColor=none;align=center;verticalAlign=middle;whiteSpace=wrap;rounded=0;" parent="1" vertex="1">
          <mxGeometry x="264" y="1138" width="108" height="56" as="geometry" />
        </mxCell>
        <mxCell id="ZI3P5AqrQ_ysWgxv9n3D-15" value="&lt;font style=&quot;font-size: 19px&quot;&gt;是&lt;/font&gt;" style="text;html=1;strokeColor=none;fillColor=none;align=center;verticalAlign=middle;whiteSpace=wrap;rounded=0;" parent="1" vertex="1">
          <mxGeometry x="288" y="1020" width="108" height="56" as="geometry" />
        </mxCell>
        <mxCell id="ZI3P5AqrQ_ysWgxv9n3D-108" style="edgeStyle=orthogonalEdgeStyle;rounded=0;orthogonalLoop=1;jettySize=auto;html=1;exitX=0.5;exitY=1;exitDx=0;exitDy=0;" parent="1" source="ZI3P5AqrQ_ysWgxv9n3D-19" edge="1">
          <mxGeometry relative="1" as="geometry">
            <mxPoint x="195.33333333333348" y="1212" as="targetPoint" />
          </mxGeometry>
        </mxCell>
        <mxCell id="ZI3P5AqrQ_ysWgxv9n3D-19" value="是否有回血技能" style="rhombus;whiteSpace=wrap;html=1;rounded=1;shadow=1;strokeWidth=2;" parent="1" vertex="1">
          <mxGeometry x="132" y="1016.75" width="125" height="112" as="geometry" />
        </mxCell>
        <mxCell id="ZI3P5AqrQ_ysWgxv9n3D-25" value="" style="edgeStyle=orthogonalEdgeStyle;rounded=0;orthogonalLoop=1;jettySize=auto;html=1;" parent="1" source="ZI3P5AqrQ_ysWgxv9n3D-20" target="ZI3P5AqrQ_ysWgxv9n3D-24" edge="1">
          <mxGeometry relative="1" as="geometry" />
        </mxCell>
        <mxCell id="ZI3P5AqrQ_ysWgxv9n3D-20" value="检测自己血量百分比" style="rounded=1;whiteSpace=wrap;html=1;shadow=1;strokeWidth=2;" parent="1" vertex="1">
          <mxGeometry x="-624" y="564" width="120" height="60" as="geometry" />
        </mxCell>
        <mxCell id="ZI3P5AqrQ_ysWgxv9n3D-21" value="&lt;font style=&quot;font-size: 14px&quot;&gt;&lt;br&gt;检测自身血量百分比，策划可配置低于多少百分比，敌人触发逃跑机制&lt;/font&gt;" style="text;html=1;strokeColor=#6c8ebf;fillColor=#dae8fc;spacing=5;spacingTop=-20;whiteSpace=wrap;overflow=hidden;rounded=0;shadow=1;" parent="1" vertex="1">
          <mxGeometry x="-830" y="736.5" width="192" height="72" as="geometry" />
        </mxCell>
        <mxCell id="ZI3P5AqrQ_ysWgxv9n3D-26" style="edgeStyle=orthogonalEdgeStyle;rounded=0;orthogonalLoop=1;jettySize=auto;html=1;exitX=0.5;exitY=1;exitDx=0;exitDy=0;entryX=0.5;entryY=0;entryDx=0;entryDy=0;" parent="1" source="ZI3P5AqrQ_ysWgxv9n3D-24" target="1SJ8d1pmAY6MuEb-5NBz-1" edge="1">
          <mxGeometry relative="1" as="geometry" />
        </mxCell>
        <mxCell id="ZI3P5AqrQ_ysWgxv9n3D-28" value="" style="edgeStyle=orthogonalEdgeStyle;rounded=0;orthogonalLoop=1;jettySize=auto;html=1;" parent="1" source="ZI3P5AqrQ_ysWgxv9n3D-24" target="ZI3P5AqrQ_ysWgxv9n3D-27" edge="1">
          <mxGeometry relative="1" as="geometry" />
        </mxCell>
        <mxCell id="ZI3P5AqrQ_ysWgxv9n3D-24" value="是否血量低于百分之【X】" style="rhombus;whiteSpace=wrap;html=1;rounded=1;shadow=1;strokeWidth=2;" parent="1" vertex="1">
          <mxGeometry x="-626.5" y="720" width="125" height="106" as="geometry" />
        </mxCell>
        <mxCell id="ZI3P5AqrQ_ysWgxv9n3D-36" value="" style="edgeStyle=orthogonalEdgeStyle;rounded=0;orthogonalLoop=1;jettySize=auto;html=1;" parent="1" source="ZI3P5AqrQ_ysWgxv9n3D-27" target="ZI3P5AqrQ_ysWgxv9n3D-35" edge="1">
          <mxGeometry relative="1" as="geometry" />
        </mxCell>
        <mxCell id="ZI3P5AqrQ_ysWgxv9n3D-27" value="向后转身，逃跑" style="whiteSpace=wrap;html=1;rounded=1;shadow=1;strokeWidth=2;" parent="1" vertex="1">
          <mxGeometry x="-324" y="743" width="120" height="60" as="geometry" />
        </mxCell>
        <mxCell id="ZI3P5AqrQ_ysWgxv9n3D-29" value="&lt;font style=&quot;font-size: 19px&quot;&gt;否&lt;/font&gt;" style="text;html=1;strokeColor=none;fillColor=none;align=center;verticalAlign=middle;whiteSpace=wrap;rounded=0;" parent="1" vertex="1">
          <mxGeometry x="-588" y="828" width="108" height="56" as="geometry" />
        </mxCell>
        <mxCell id="ZI3P5AqrQ_ysWgxv9n3D-30" value="&lt;font style=&quot;font-size: 19px&quot;&gt;是&lt;/font&gt;" style="text;html=1;strokeColor=none;fillColor=none;align=center;verticalAlign=middle;whiteSpace=wrap;rounded=0;" parent="1" vertex="1">
          <mxGeometry x="-462" y="708" width="108" height="56" as="geometry" />
        </mxCell>
        <mxCell id="ZI3P5AqrQ_ysWgxv9n3D-38" value="" style="edgeStyle=orthogonalEdgeStyle;rounded=0;orthogonalLoop=1;jettySize=auto;html=1;" parent="1" source="ZI3P5AqrQ_ysWgxv9n3D-35" target="ZI3P5AqrQ_ysWgxv9n3D-37" edge="1">
          <mxGeometry relative="1" as="geometry" />
        </mxCell>
        <mxCell id="ZI3P5AqrQ_ysWgxv9n3D-41" value="" style="edgeStyle=orthogonalEdgeStyle;rounded=0;orthogonalLoop=1;jettySize=auto;html=1;" parent="1" source="ZI3P5AqrQ_ysWgxv9n3D-35" target="ZI3P5AqrQ_ysWgxv9n3D-40" edge="1">
          <mxGeometry relative="1" as="geometry" />
        </mxCell>
        <mxCell id="ZI3P5AqrQ_ysWgxv9n3D-35" value="是否有回血技能" style="rhombus;whiteSpace=wrap;html=1;rounded=1;shadow=1;strokeWidth=2;" parent="1" vertex="1">
          <mxGeometry x="-61.5" y="720" width="109.5" height="105" as="geometry" />
        </mxCell>
        <mxCell id="ZI3P5AqrQ_ysWgxv9n3D-37" value="对自身释放，结束回合" style="whiteSpace=wrap;html=1;rounded=1;shadow=1;fillColor=#f8cecc;strokeColor=#b85450;strokeWidth=2;" parent="1" vertex="1">
          <mxGeometry x="168" y="743" width="120" height="60" as="geometry" />
        </mxCell>
        <mxCell id="ZI3P5AqrQ_ysWgxv9n3D-39" value="&lt;font style=&quot;font-size: 19px&quot;&gt;是&lt;/font&gt;" style="text;html=1;strokeColor=none;fillColor=none;align=center;verticalAlign=middle;whiteSpace=wrap;rounded=0;" parent="1" vertex="1">
          <mxGeometry x="36" y="720" width="108" height="56" as="geometry" />
        </mxCell>
        <mxCell id="ZI3P5AqrQ_ysWgxv9n3D-40" value="结束回合" style="whiteSpace=wrap;html=1;rounded=1;shadow=1;fillColor=#f8cecc;strokeColor=#b85450;strokeWidth=2;" parent="1" vertex="1">
          <mxGeometry x="-66.75" y="900" width="120" height="60" as="geometry" />
        </mxCell>
        <mxCell id="ZI3P5AqrQ_ysWgxv9n3D-42" value="&lt;font style=&quot;font-size: 19px&quot;&gt;否&lt;/font&gt;" style="text;html=1;strokeColor=none;fillColor=none;align=center;verticalAlign=middle;whiteSpace=wrap;rounded=0;" parent="1" vertex="1">
          <mxGeometry x="-24" y="836" width="108" height="48" as="geometry" />
        </mxCell>
        <mxCell id="ZI3P5AqrQ_ysWgxv9n3D-47" value="&lt;br&gt;如逃跑过程中有掩体，则会优先进入离自己最近的掩体中，逃跑距离在最小移动距离和最大移动距离中随机选择一个点" style="text;html=1;strokeColor=#6c8ebf;fillColor=#dae8fc;spacing=5;spacingTop=-20;whiteSpace=wrap;overflow=hidden;rounded=0;shadow=1;" parent="1" vertex="1">
          <mxGeometry x="-360" y="648" width="192" height="72" as="geometry" />
        </mxCell>
        <mxCell id="ZI3P5AqrQ_ysWgxv9n3D-52" value="&lt;font style=&quot;font-size: 19px&quot;&gt;否&lt;/font&gt;" style="text;html=1;strokeColor=none;fillColor=none;align=center;verticalAlign=middle;whiteSpace=wrap;rounded=0;" parent="1" vertex="1">
          <mxGeometry x="-588" y="1668" width="108" height="56" as="geometry" />
        </mxCell>
        <mxCell id="ZI3P5AqrQ_ysWgxv9n3D-55" value="" style="edgeStyle=orthogonalEdgeStyle;rounded=0;orthogonalLoop=1;jettySize=auto;html=1;" parent="1" source="ZI3P5AqrQ_ysWgxv9n3D-53" target="ZI3P5AqrQ_ysWgxv9n3D-54" edge="1">
          <mxGeometry relative="1" as="geometry" />
        </mxCell>
        <mxCell id="ZI3P5AqrQ_ysWgxv9n3D-60" style="edgeStyle=orthogonalEdgeStyle;rounded=0;orthogonalLoop=1;jettySize=auto;html=1;exitX=0.5;exitY=1;exitDx=0;exitDy=0;" parent="1" source="ZI3P5AqrQ_ysWgxv9n3D-53" target="ZI3P5AqrQ_ysWgxv9n3D-58" edge="1">
          <mxGeometry relative="1" as="geometry" />
        </mxCell>
        <mxCell id="ZI3P5AqrQ_ysWgxv9n3D-53" value="是否有AOE技能够同时&lt;br&gt;打到【2】名以上目标" style="rhombus;whiteSpace=wrap;html=1;rounded=1;shadow=1;strokeColor=#000000;strokeWidth=2;" parent="1" vertex="1">
          <mxGeometry x="-638" y="1860" width="148" height="132" as="geometry" />
        </mxCell>
        <mxCell id="ZI3P5AqrQ_ysWgxv9n3D-54" value="移动到一个位置释放此AOE技能，结束回合" style="whiteSpace=wrap;html=1;rounded=1;shadow=1;strokeWidth=2;fillColor=#f8cecc;strokeColor=#b85450;" parent="1" vertex="1">
          <mxGeometry x="-306" y="1896" width="120" height="60" as="geometry" />
        </mxCell>
        <mxCell id="ZI3P5AqrQ_ysWgxv9n3D-56" value="&lt;font style=&quot;font-size: 19px&quot;&gt;是&lt;/font&gt;" style="text;html=1;strokeColor=none;fillColor=none;align=center;verticalAlign=middle;whiteSpace=wrap;rounded=0;" parent="1" vertex="1">
          <mxGeometry x="-492" y="1476" width="108" height="56" as="geometry" />
        </mxCell>
        <mxCell id="ZI3P5AqrQ_ysWgxv9n3D-57" value="&lt;font style=&quot;font-size: 19px&quot;&gt;是&lt;/font&gt;" style="text;html=1;strokeColor=none;fillColor=none;align=center;verticalAlign=middle;whiteSpace=wrap;rounded=0;" parent="1" vertex="1">
          <mxGeometry x="-456" y="1872" width="108" height="56" as="geometry" />
        </mxCell>
        <mxCell id="ZI3P5AqrQ_ysWgxv9n3D-77" value="" style="edgeStyle=orthogonalEdgeStyle;rounded=0;orthogonalLoop=1;jettySize=auto;html=1;" parent="1" source="ZI3P5AqrQ_ysWgxv9n3D-58" target="ZI3P5AqrQ_ysWgxv9n3D-76" edge="1">
          <mxGeometry relative="1" as="geometry" />
        </mxCell>
        <mxCell id="ZI3P5AqrQ_ysWgxv9n3D-80" value="" style="edgeStyle=orthogonalEdgeStyle;rounded=0;orthogonalLoop=1;jettySize=auto;html=1;" parent="1" source="ZI3P5AqrQ_ysWgxv9n3D-58" target="ZI3P5AqrQ_ysWgxv9n3D-79" edge="1">
          <mxGeometry relative="1" as="geometry" />
        </mxCell>
        <mxCell id="ZI3P5AqrQ_ysWgxv9n3D-58" value="是否有目标在掩体外" style="rhombus;whiteSpace=wrap;html=1;rounded=1;shadow=1;strokeColor=#000000;strokeWidth=2;" parent="1" vertex="1">
          <mxGeometry x="-638" y="2124" width="148" height="132" as="geometry" />
        </mxCell>
        <mxCell id="ZI3P5AqrQ_ysWgxv9n3D-61" value="&lt;font style=&quot;font-size: 19px&quot;&gt;否&lt;/font&gt;" style="text;html=1;strokeColor=none;fillColor=none;align=center;verticalAlign=middle;whiteSpace=wrap;rounded=0;" parent="1" vertex="1">
          <mxGeometry x="-588" y="2016" width="108" height="56" as="geometry" />
        </mxCell>
        <mxCell id="ZI3P5AqrQ_ysWgxv9n3D-76" value="移动到一个位置攻击血量比例最低的目标" style="whiteSpace=wrap;html=1;rounded=1;shadow=1;strokeWidth=2;fillColor=#f8cecc;strokeColor=#b85450;" parent="1" vertex="1">
          <mxGeometry x="-312" y="2160" width="120" height="60" as="geometry" />
        </mxCell>
        <mxCell id="ZI3P5AqrQ_ysWgxv9n3D-78" value="&lt;font style=&quot;font-size: 19px&quot;&gt;是&lt;/font&gt;" style="text;html=1;strokeColor=none;fillColor=none;align=center;verticalAlign=middle;whiteSpace=wrap;rounded=0;" parent="1" vertex="1">
          <mxGeometry x="-456" y="2136" width="108" height="56" as="geometry" />
        </mxCell>
        <mxCell id="ZI3P5AqrQ_ysWgxv9n3D-79" value="选择一个血量比例最低的目标进行攻击" style="whiteSpace=wrap;html=1;rounded=1;shadow=1;strokeWidth=2;fillColor=#f8cecc;strokeColor=#b85450;" parent="1" vertex="1">
          <mxGeometry x="-624" y="2400" width="120" height="60" as="geometry" />
        </mxCell>
        <mxCell id="ZI3P5AqrQ_ysWgxv9n3D-81" value="&lt;font style=&quot;font-size: 19px&quot;&gt;否&lt;/font&gt;" style="text;html=1;strokeColor=none;fillColor=none;align=center;verticalAlign=middle;whiteSpace=wrap;rounded=0;" parent="1" vertex="1">
          <mxGeometry x="-588" y="2280" width="108" height="56" as="geometry" />
        </mxCell>
        <mxCell id="ZI3P5AqrQ_ysWgxv9n3D-90" value="按最短距离移动到目标点" style="whiteSpace=wrap;html=1;rounded=1;strokeWidth=5;" parent="1" vertex="1">
          <mxGeometry x="3564" y="468" width="144" height="76" as="geometry" />
        </mxCell>
        <mxCell id="ZI3P5AqrQ_ysWgxv9n3D-92" value="&lt;h1&gt;&lt;span style=&quot;font-size: 15px ; font-weight: 400&quot;&gt;策划配置一个点，AI只会向此点进行移动，中途遇敌不会主动攻击&lt;/span&gt;&lt;/h1&gt;" style="text;html=1;strokeColor=#6c8ebf;fillColor=#dae8fc;spacing=5;spacingTop=-20;whiteSpace=wrap;overflow=hidden;rounded=0;" parent="1" vertex="1">
          <mxGeometry x="3504" y="588" width="264" height="84" as="geometry" />
        </mxCell>
        <mxCell id="ZI3P5AqrQ_ysWgxv9n3D-93" value="&lt;h1&gt;&lt;span style=&quot;font-size: 15px ; font-weight: 400&quot;&gt;策划配置一个点，AI移动到某个点播放某个技能，表演完后，可根据策划配置是否走到“&lt;font color=&quot;#ff0000&quot;&gt;攻击型”&lt;/font&gt; 或者是 “&lt;font color=&quot;#ff0000&quot;&gt;辅助型&lt;/font&gt;”的AI逻辑中&lt;/span&gt;&lt;/h1&gt;" style="text;html=1;strokeColor=#6c8ebf;fillColor=#dae8fc;spacing=5;spacingTop=-20;whiteSpace=wrap;overflow=hidden;rounded=0;" parent="1" vertex="1">
          <mxGeometry x="3852" y="565.5" width="324" height="124" as="geometry" />
        </mxCell>
        <mxCell id="ZI3P5AqrQ_ysWgxv9n3D-94" value="移动到目标点释放技能" style="whiteSpace=wrap;html=1;rounded=1;strokeWidth=5;" parent="1" vertex="1">
          <mxGeometry x="3828" y="468" width="144" height="76" as="geometry" />
        </mxCell>
        <mxCell id="ZI3P5AqrQ_ysWgxv9n3D-112" style="edgeStyle=orthogonalEdgeStyle;rounded=0;orthogonalLoop=1;jettySize=auto;html=1;exitX=0.5;exitY=1;exitDx=0;exitDy=0;" parent="1" source="ZI3P5AqrQ_ysWgxv9n3D-96" target="ZI3P5AqrQ_ysWgxv9n3D-110" edge="1">
          <mxGeometry relative="1" as="geometry" />
        </mxCell>
        <mxCell id="ZI3P5AqrQ_ysWgxv9n3D-96" value="防御型" style="whiteSpace=wrap;html=1;rounded=0;strokeWidth=5;" parent="1" vertex="1">
          <mxGeometry x="1121" y="384" width="120" height="60" as="geometry" />
        </mxCell>
        <mxCell id="ZI3P5AqrQ_ysWgxv9n3D-114" value="" style="edgeStyle=orthogonalEdgeStyle;rounded=0;orthogonalLoop=1;jettySize=auto;html=1;" parent="1" source="ZI3P5AqrQ_ysWgxv9n3D-110" target="ZI3P5AqrQ_ysWgxv9n3D-113" edge="1">
          <mxGeometry relative="1" as="geometry" />
        </mxCell>
        <mxCell id="ZI3P5AqrQ_ysWgxv9n3D-110" value="检查自己可用的技能" style="whiteSpace=wrap;html=1;rounded=1;strokeWidth=2;" parent="1" vertex="1">
          <mxGeometry x="1110.25" y="686.5" width="120" height="60" as="geometry" />
        </mxCell>
        <mxCell id="ZI3P5AqrQ_ysWgxv9n3D-117" value="" style="edgeStyle=orthogonalEdgeStyle;rounded=0;orthogonalLoop=1;jettySize=auto;html=1;" parent="1" source="ZI3P5AqrQ_ysWgxv9n3D-113" target="ZI3P5AqrQ_ysWgxv9n3D-116" edge="1">
          <mxGeometry relative="1" as="geometry" />
        </mxCell>
        <mxCell id="ZI3P5AqrQ_ysWgxv9n3D-120" value="" style="edgeStyle=orthogonalEdgeStyle;rounded=0;orthogonalLoop=1;jettySize=auto;html=1;" parent="1" source="ZI3P5AqrQ_ysWgxv9n3D-113" edge="1">
          <mxGeometry relative="1" as="geometry">
            <mxPoint x="1417.25" y="873" as="targetPoint" />
          </mxGeometry>
        </mxCell>
        <mxCell id="ZI3P5AqrQ_ysWgxv9n3D-113" value="是否有”保护型“技能可用" style="rhombus;whiteSpace=wrap;html=1;rounded=1;strokeWidth=2;" parent="1" vertex="1">
          <mxGeometry x="1092" y="808.5" width="156.5" height="129" as="geometry" />
        </mxCell>
        <mxCell id="ZI3P5AqrQ_ysWgxv9n3D-115" value="&lt;h1&gt;&lt;span style=&quot;font-size: 15px ; font-weight: 400&quot;&gt;策划需要定义什么是“保护型” 技能&lt;/span&gt;&lt;/h1&gt;" style="text;html=1;strokeColor=#6c8ebf;fillColor=#dae8fc;spacing=5;spacingTop=-20;whiteSpace=wrap;overflow=hidden;rounded=0;" parent="1" vertex="1">
          <mxGeometry x="864" y="682" width="216" height="73" as="geometry" />
        </mxCell>
        <mxCell id="ZI3P5AqrQ_ysWgxv9n3D-131" value="" style="edgeStyle=orthogonalEdgeStyle;rounded=0;orthogonalLoop=1;jettySize=auto;html=1;" parent="1" source="ZI3P5AqrQ_ysWgxv9n3D-116" target="ZI3P5AqrQ_ysWgxv9n3D-130" edge="1">
          <mxGeometry relative="1" as="geometry" />
        </mxCell>
        <mxCell id="ZI3P5AqrQ_ysWgxv9n3D-134" value="" style="edgeStyle=orthogonalEdgeStyle;rounded=0;orthogonalLoop=1;jettySize=auto;html=1;" parent="1" source="ZI3P5AqrQ_ysWgxv9n3D-116" target="ZI3P5AqrQ_ysWgxv9n3D-133" edge="1">
          <mxGeometry relative="1" as="geometry" />
        </mxCell>
        <mxCell id="ZI3P5AqrQ_ysWgxv9n3D-116" value="&lt;span&gt;检查自身攻击范围内是否存在目标&lt;/span&gt;" style="whiteSpace=wrap;html=1;rounded=1;strokeWidth=2;" parent="1" vertex="1">
          <mxGeometry x="1110.25" y="1169.5" width="120" height="60" as="geometry" />
        </mxCell>
        <mxCell id="ZI3P5AqrQ_ysWgxv9n3D-118" value="&lt;font style=&quot;font-size: 19px&quot;&gt;否&lt;/font&gt;" style="text;html=1;strokeColor=none;fillColor=none;align=center;verticalAlign=middle;whiteSpace=wrap;rounded=0;" parent="1" vertex="1">
          <mxGeometry x="1153.25" y="1011.5" width="108" height="56" as="geometry" />
        </mxCell>
        <mxCell id="ZI3P5AqrQ_ysWgxv9n3D-121" value="&lt;font style=&quot;font-size: 19px&quot;&gt;是&lt;/font&gt;" style="text;html=1;strokeColor=none;fillColor=none;align=center;verticalAlign=middle;whiteSpace=wrap;rounded=0;" parent="1" vertex="1">
          <mxGeometry x="1273.25" y="817.5" width="108" height="56" as="geometry" />
        </mxCell>
        <mxCell id="ZI3P5AqrQ_ysWgxv9n3D-124" value="" style="edgeStyle=orthogonalEdgeStyle;rounded=0;orthogonalLoop=1;jettySize=auto;html=1;" parent="1" source="ZI3P5AqrQ_ysWgxv9n3D-122" target="ZI3P5AqrQ_ysWgxv9n3D-123" edge="1">
          <mxGeometry relative="1" as="geometry" />
        </mxCell>
        <mxCell id="ZI3P5AqrQ_ysWgxv9n3D-127" value="" style="edgeStyle=orthogonalEdgeStyle;rounded=0;orthogonalLoop=1;jettySize=auto;html=1;" parent="1" source="ZI3P5AqrQ_ysWgxv9n3D-122" target="ZI3P5AqrQ_ysWgxv9n3D-126" edge="1">
          <mxGeometry relative="1" as="geometry" />
        </mxCell>
        <mxCell id="ZI3P5AqrQ_ysWgxv9n3D-122" value="“保护型”技能是否能Cover&lt;br&gt;到友军" style="rhombus;whiteSpace=wrap;html=1;rounded=1;strokeWidth=2;" parent="1" vertex="1">
          <mxGeometry x="1417.25" y="809.5" width="156.5" height="129" as="geometry" />
        </mxCell>
        <mxCell id="ZI3P5AqrQ_ysWgxv9n3D-123" value="走到距离最近的友军附近，释放技能" style="whiteSpace=wrap;html=1;rounded=1;strokeWidth=2;fillColor=#f8cecc;strokeColor=#b85450;" parent="1" vertex="1">
          <mxGeometry x="1717.25" y="844" width="120" height="60" as="geometry" />
        </mxCell>
        <mxCell id="ZI3P5AqrQ_ysWgxv9n3D-125" value="&lt;font style=&quot;font-size: 19px&quot;&gt;是&lt;/font&gt;" style="text;html=1;strokeColor=none;fillColor=none;align=center;verticalAlign=middle;whiteSpace=wrap;rounded=0;" parent="1" vertex="1">
          <mxGeometry x="1597.25" y="817.5" width="108" height="56" as="geometry" />
        </mxCell>
        <mxCell id="ZI3P5AqrQ_ysWgxv9n3D-126" value="向距离最近的友军移动" style="whiteSpace=wrap;html=1;rounded=1;strokeWidth=2;" parent="1" vertex="1">
          <mxGeometry x="1435.5" y="1026" width="120" height="60" as="geometry" />
        </mxCell>
        <mxCell id="ZI3P5AqrQ_ysWgxv9n3D-128" value="&lt;font style=&quot;font-size: 19px&quot;&gt;否&lt;/font&gt;" style="text;html=1;strokeColor=none;fillColor=none;align=center;verticalAlign=middle;whiteSpace=wrap;rounded=0;" parent="1" vertex="1">
          <mxGeometry x="1477.25" y="941.5" width="108" height="56" as="geometry" />
        </mxCell>
        <mxCell id="ZI3P5AqrQ_ysWgxv9n3D-130" value="选择血量百分比最低的目标进行攻击" style="whiteSpace=wrap;html=1;rounded=1;strokeWidth=2;fillColor=#f8cecc;strokeColor=#b85450;" parent="1" vertex="1">
          <mxGeometry x="1417.25" y="1169.5" width="120" height="60" as="geometry" />
        </mxCell>
        <mxCell id="ZI3P5AqrQ_ysWgxv9n3D-132" value="&lt;font style=&quot;font-size: 19px&quot;&gt;是&lt;/font&gt;" style="text;html=1;strokeColor=none;fillColor=none;align=center;verticalAlign=middle;whiteSpace=wrap;rounded=0;" parent="1" vertex="1">
          <mxGeometry x="1273.25" y="1139.5" width="108" height="56" as="geometry" />
        </mxCell>
        <mxCell id="ZI3P5AqrQ_ysWgxv9n3D-133" value="朝最近的敌方目标进行移动" style="whiteSpace=wrap;html=1;rounded=1;strokeWidth=2;fillColor=#f8cecc;strokeColor=#b85450;" parent="1" vertex="1">
          <mxGeometry x="1110.25" y="1349.5" width="120" height="60" as="geometry" />
        </mxCell>
        <mxCell id="ZI3P5AqrQ_ysWgxv9n3D-135" value="&lt;font style=&quot;font-size: 19px&quot;&gt;否&lt;/font&gt;" style="text;html=1;strokeColor=none;fillColor=none;align=center;verticalAlign=middle;whiteSpace=wrap;rounded=0;" parent="1" vertex="1">
          <mxGeometry x="1165.25" y="1243.5" width="108" height="56" as="geometry" />
        </mxCell>
        <mxCell id="ZI3P5AqrQ_ysWgxv9n3D-138" value="" style="rounded=1;whiteSpace=wrap;html=1;strokeWidth=2;fillWeight=4;hachureGap=8;hachureAngle=45;fillColor=#1ba1e2;sketch=1;shadow=1;" parent="1" vertex="1">
          <mxGeometry x="240" y="545" width="120" height="60" as="geometry" />
        </mxCell>
        <mxCell id="ZI3P5AqrQ_ysWgxv9n3D-145" value="" style="edgeStyle=orthogonalEdgeStyle;rounded=0;orthogonalLoop=1;jettySize=auto;html=1;" parent="1" source="ZI3P5AqrQ_ysWgxv9n3D-140" target="ZI3P5AqrQ_ysWgxv9n3D-144" edge="1">
          <mxGeometry relative="1" as="geometry" />
        </mxCell>
        <mxCell id="ZI3P5AqrQ_ysWgxv9n3D-164" style="edgeStyle=orthogonalEdgeStyle;rounded=0;orthogonalLoop=1;jettySize=auto;html=1;exitX=0.5;exitY=1;exitDx=0;exitDy=0;" parent="1" source="ZI3P5AqrQ_ysWgxv9n3D-140" edge="1">
          <mxGeometry relative="1" as="geometry">
            <mxPoint x="2178.3088235294117" y="1555.5" as="targetPoint" />
          </mxGeometry>
        </mxCell>
        <mxCell id="ZI3P5AqrQ_ysWgxv9n3D-140" value="是否有”辅助型“技能可用" style="rhombus;whiteSpace=wrap;html=1;rounded=1;strokeWidth=2;" parent="1" vertex="1">
          <mxGeometry x="2100" y="1092" width="156.5" height="129" as="geometry" />
        </mxCell>
        <mxCell id="ZI3P5AqrQ_ysWgxv9n3D-148" value="" style="edgeStyle=orthogonalEdgeStyle;rounded=0;orthogonalLoop=1;jettySize=auto;html=1;" parent="1" source="ZI3P5AqrQ_ysWgxv9n3D-144" target="ZI3P5AqrQ_ysWgxv9n3D-147" edge="1">
          <mxGeometry relative="1" as="geometry" />
        </mxCell>
        <mxCell id="ZI3P5AqrQ_ysWgxv9n3D-169" value="" style="edgeStyle=orthogonalEdgeStyle;rounded=0;orthogonalLoop=1;jettySize=auto;html=1;" parent="1" source="ZI3P5AqrQ_ysWgxv9n3D-144" target="ZI3P5AqrQ_ysWgxv9n3D-168" edge="1">
          <mxGeometry relative="1" as="geometry" />
        </mxCell>
        <mxCell id="ZI3P5AqrQ_ysWgxv9n3D-144" value="是否有”治疗“技能可用" style="rhombus;whiteSpace=wrap;html=1;rounded=1;strokeWidth=2;" parent="1" vertex="1">
          <mxGeometry x="2442.25" y="1093" width="156.5" height="129" as="geometry" />
        </mxCell>
        <mxCell id="ZI3P5AqrQ_ysWgxv9n3D-146" value="&lt;font style=&quot;font-size: 19px&quot;&gt;是&lt;/font&gt;" style="text;html=1;strokeColor=none;fillColor=none;align=center;verticalAlign=middle;whiteSpace=wrap;rounded=0;" parent="1" vertex="1">
          <mxGeometry x="2286.25" y="1102.5" width="108" height="56" as="geometry" />
        </mxCell>
        <mxCell id="ZI3P5AqrQ_ysWgxv9n3D-155" value="" style="edgeStyle=orthogonalEdgeStyle;rounded=0;orthogonalLoop=1;jettySize=auto;html=1;" parent="1" source="ZI3P5AqrQ_ysWgxv9n3D-147" target="ZI3P5AqrQ_ysWgxv9n3D-154" edge="1">
          <mxGeometry relative="1" as="geometry" />
        </mxCell>
        <mxCell id="ZI3P5AqrQ_ysWgxv9n3D-171" style="edgeStyle=orthogonalEdgeStyle;rounded=0;orthogonalLoop=1;jettySize=auto;html=1;exitX=0.5;exitY=1;exitDx=0;exitDy=0;" parent="1" source="ZI3P5AqrQ_ysWgxv9n3D-147" edge="1">
          <mxGeometry relative="1" as="geometry">
            <mxPoint x="2659" y="1365" as="targetPoint" />
          </mxGeometry>
        </mxCell>
        <mxCell id="ZI3P5AqrQ_ysWgxv9n3D-147" value="是否友军血量低于百分之【X】" style="rhombus;whiteSpace=wrap;html=1;rounded=1;strokeWidth=2;" parent="1" vertex="1">
          <mxGeometry x="2718.25" y="1093" width="156.5" height="129" as="geometry" />
        </mxCell>
        <mxCell id="ZI3P5AqrQ_ysWgxv9n3D-149" value="&lt;font style=&quot;font-size: 19px&quot;&gt;是&lt;/font&gt;" style="text;html=1;strokeColor=none;fillColor=none;align=center;verticalAlign=middle;whiteSpace=wrap;rounded=0;" parent="1" vertex="1">
          <mxGeometry x="2610.25" y="1102.5" width="108" height="56" as="geometry" />
        </mxCell>
        <mxCell id="ZI3P5AqrQ_ysWgxv9n3D-154" value="移动到友军附近，释放“治疗”技能" style="whiteSpace=wrap;html=1;rounded=1;strokeWidth=2;fillColor=#f8cecc;strokeColor=#b85450;" parent="1" vertex="1">
          <mxGeometry x="2973" y="1127.5" width="120" height="60" as="geometry" />
        </mxCell>
        <mxCell id="ZI3P5AqrQ_ysWgxv9n3D-156" value="&lt;h1&gt;&lt;span style=&quot;font-size: 15px ; font-weight: 400&quot;&gt;策划需要定义什么是“辅助型” 技能，通常分为2种，第一种BUFF增益型&lt;/span&gt;&lt;/h1&gt;&lt;div&gt;&lt;span style=&quot;font-size: 15px ; font-weight: 400&quot;&gt;第二种heal治疗型&lt;/span&gt;&lt;/div&gt;&lt;div&gt;&lt;span style=&quot;font-size: 15px ; font-weight: 400&quot;&gt;&lt;br&gt;&lt;/span&gt;&lt;/div&gt;" style="text;html=1;strokeColor=#6c8ebf;fillColor=#dae8fc;spacing=5;spacingTop=-20;whiteSpace=wrap;overflow=hidden;rounded=0;" parent="1" vertex="1">
          <mxGeometry x="1812" y="408" width="251" height="114.5" as="geometry" />
        </mxCell>
        <mxCell id="ZI3P5AqrQ_ysWgxv9n3D-157" value="" style="edgeStyle=orthogonalEdgeStyle;rounded=0;orthogonalLoop=1;jettySize=auto;html=1;" parent="1" source="ZI3P5AqrQ_ysWgxv9n3D-159" target="ZI3P5AqrQ_ysWgxv9n3D-160" edge="1">
          <mxGeometry relative="1" as="geometry" />
        </mxCell>
        <mxCell id="ZI3P5AqrQ_ysWgxv9n3D-158" value="" style="edgeStyle=orthogonalEdgeStyle;rounded=0;orthogonalLoop=1;jettySize=auto;html=1;" parent="1" source="ZI3P5AqrQ_ysWgxv9n3D-159" target="ZI3P5AqrQ_ysWgxv9n3D-162" edge="1">
          <mxGeometry relative="1" as="geometry" />
        </mxCell>
        <mxCell id="ZI3P5AqrQ_ysWgxv9n3D-159" value="&lt;span&gt;检查自身攻击范围内是否存在目标&lt;/span&gt;" style="whiteSpace=wrap;html=1;rounded=1;strokeWidth=2;" parent="1" vertex="1">
          <mxGeometry x="2118.25" y="1561.5" width="120" height="60" as="geometry" />
        </mxCell>
        <mxCell id="ZI3P5AqrQ_ysWgxv9n3D-160" value="选择血量百分比最低的目标进行攻击" style="whiteSpace=wrap;html=1;rounded=1;strokeWidth=2;fillColor=#f8cecc;strokeColor=#b85450;" parent="1" vertex="1">
          <mxGeometry x="2425.25" y="1561.5" width="120" height="60" as="geometry" />
        </mxCell>
        <mxCell id="ZI3P5AqrQ_ysWgxv9n3D-161" value="&lt;font style=&quot;font-size: 19px&quot;&gt;是&lt;/font&gt;" style="text;html=1;strokeColor=none;fillColor=none;align=center;verticalAlign=middle;whiteSpace=wrap;rounded=0;" parent="1" vertex="1">
          <mxGeometry x="2281.25" y="1531.5" width="108" height="56" as="geometry" />
        </mxCell>
        <mxCell id="ZI3P5AqrQ_ysWgxv9n3D-162" value="朝最近的敌方目标进行移动" style="whiteSpace=wrap;html=1;rounded=1;strokeWidth=2;fillColor=#f8cecc;strokeColor=#b85450;" parent="1" vertex="1">
          <mxGeometry x="2118.25" y="1741.5" width="120" height="60" as="geometry" />
        </mxCell>
        <mxCell id="ZI3P5AqrQ_ysWgxv9n3D-163" value="&lt;font style=&quot;font-size: 19px&quot;&gt;否&lt;/font&gt;" style="text;html=1;strokeColor=none;fillColor=none;align=center;verticalAlign=middle;whiteSpace=wrap;rounded=0;" parent="1" vertex="1">
          <mxGeometry x="2148.5" y="1647" width="108" height="56" as="geometry" />
        </mxCell>
        <mxCell id="ZI3P5AqrQ_ysWgxv9n3D-167" value="&lt;font style=&quot;font-size: 19px&quot;&gt;是&lt;/font&gt;" style="text;html=1;strokeColor=none;fillColor=none;align=center;verticalAlign=middle;whiteSpace=wrap;rounded=0;" parent="1" vertex="1">
          <mxGeometry x="2874.75" y="1102.5" width="108" height="56" as="geometry" />
        </mxCell>
        <mxCell id="ZI3P5AqrQ_ysWgxv9n3D-168" value="&lt;span&gt;移动到友军附近，释放“辅助型”技能&lt;/span&gt;" style="whiteSpace=wrap;html=1;rounded=1;strokeWidth=2;fillColor=#f8cecc;strokeColor=#b85450;" parent="1" vertex="1">
          <mxGeometry x="2580" y="1368" width="120" height="55.5" as="geometry" />
        </mxCell>
        <mxCell id="ZI3P5AqrQ_ysWgxv9n3D-170" value="&lt;font style=&quot;font-size: 19px&quot;&gt;否&lt;/font&gt;" style="text;html=1;strokeColor=none;fillColor=none;align=center;verticalAlign=middle;whiteSpace=wrap;rounded=0;" parent="1" vertex="1">
          <mxGeometry x="2545.25" y="1243" width="108" height="56" as="geometry" />
        </mxCell>
        <mxCell id="ZI3P5AqrQ_ysWgxv9n3D-172" value="&lt;font style=&quot;font-size: 19px&quot;&gt;否&lt;/font&gt;" style="text;html=1;strokeColor=none;fillColor=none;align=center;verticalAlign=middle;whiteSpace=wrap;rounded=0;" parent="1" vertex="1">
          <mxGeometry x="2688" y="1243.5" width="108" height="56" as="geometry" />
        </mxCell>
        <mxCell id="ZI3P5AqrQ_ysWgxv9n3D-173" value="&lt;font style=&quot;font-size: 19px&quot;&gt;否&lt;/font&gt;" style="text;html=1;strokeColor=none;fillColor=none;align=center;verticalAlign=middle;whiteSpace=wrap;rounded=0;" parent="1" vertex="1">
          <mxGeometry x="2148.5" y="1349.5" width="108" height="56" as="geometry" />
        </mxCell>
        <mxCell id="ZI3P5AqrQ_ysWgxv9n3D-174" value="&lt;h1&gt;&lt;span style=&quot;font-size: 15px ; font-weight: 400&quot;&gt;AI检测友军血量同时也会检测自己的血量，选择一个血量百分比最低的目标进行“治疗”&lt;/span&gt;&lt;/h1&gt;" style="text;html=1;strokeColor=#6c8ebf;fillColor=#dae8fc;spacing=5;spacingTop=-20;whiteSpace=wrap;overflow=hidden;rounded=0;" parent="1" vertex="1">
          <mxGeometry x="2832" y="978" width="276" height="102" as="geometry" />
        </mxCell>
        <mxCell id="6_bY_sh62_LnZEufbwjD-3" style="edgeStyle=orthogonalEdgeStyle;rounded=0;orthogonalLoop=1;jettySize=auto;html=1;exitX=0.5;exitY=1;exitDx=0;exitDy=0;entryX=0.5;entryY=0;entryDx=0;entryDy=0;" edge="1" parent="1" source="6_bY_sh62_LnZEufbwjD-1" target="ZI3P5AqrQ_ysWgxv9n3D-140">
          <mxGeometry relative="1" as="geometry" />
        </mxCell>
        <mxCell id="6_bY_sh62_LnZEufbwjD-1" value="&lt;span&gt;检测自己辅助技能范围内是否存在友军&lt;/span&gt;" style="rhombus;whiteSpace=wrap;html=1;rounded=1;shadow=1;strokeWidth=2;" vertex="1" parent="1">
          <mxGeometry x="2107.25" y="736.5" width="142" height="124" as="geometry" />
        </mxCell>
        <mxCell id="6_bY_sh62_LnZEufbwjD-4" value="&lt;font style=&quot;font-size: 19px&quot;&gt;是&lt;/font&gt;" style="text;html=1;strokeColor=none;fillColor=none;align=center;verticalAlign=middle;whiteSpace=wrap;rounded=0;" vertex="1" parent="1">
          <mxGeometry x="2160" y="941.5" width="108" height="56" as="geometry" />
        </mxCell>
        <mxCell id="6_bY_sh62_LnZEufbwjD-5" value="向最近的友军移动" style="whiteSpace=wrap;html=1;rounded=1;shadow=1;strokeWidth=2;fillColor=#f8cecc;strokeColor=#b85450;" vertex="1" parent="1">
          <mxGeometry x="2526" y="348" width="120" height="60" as="geometry" />
        </mxCell>
        <mxCell id="6_bY_sh62_LnZEufbwjD-7" value="&lt;font style=&quot;font-size: 19px&quot;&gt;否&lt;/font&gt;" style="text;html=1;strokeColor=none;fillColor=none;align=center;verticalAlign=middle;whiteSpace=wrap;rounded=0;" vertex="1" parent="1">
          <mxGeometry x="2304" y="736.5" width="108" height="56" as="geometry" />
        </mxCell>
        <mxCell id="6_bY_sh62_LnZEufbwjD-10" style="edgeStyle=orthogonalEdgeStyle;rounded=0;orthogonalLoop=1;jettySize=auto;html=1;exitX=0.5;exitY=1;exitDx=0;exitDy=0;" edge="1" parent="1" source="6_bY_sh62_LnZEufbwjD-8">
          <mxGeometry relative="1" as="geometry">
            <mxPoint x="2177.142857142858" y="731.9999999999998" as="targetPoint" />
          </mxGeometry>
        </mxCell>
        <mxCell id="6_bY_sh62_LnZEufbwjD-20" value="" style="edgeStyle=orthogonalEdgeStyle;rounded=0;orthogonalLoop=1;jettySize=auto;html=1;" edge="1" parent="1" source="6_bY_sh62_LnZEufbwjD-8">
          <mxGeometry relative="1" as="geometry">
            <mxPoint x="2508" y="599" as="targetPoint" />
          </mxGeometry>
        </mxCell>
        <mxCell id="6_bY_sh62_LnZEufbwjD-8" value="&lt;span&gt;是否有”辅助型“技能可用&lt;/span&gt;" style="rhombus;whiteSpace=wrap;html=1;rounded=1;shadow=1;strokeWidth=2;" vertex="1" parent="1">
          <mxGeometry x="2105.25" y="545" width="144" height="108" as="geometry" />
        </mxCell>
        <mxCell id="6_bY_sh62_LnZEufbwjD-11" value="&lt;font style=&quot;font-size: 19px&quot;&gt;是&lt;/font&gt;" style="text;html=1;strokeColor=none;fillColor=none;align=center;verticalAlign=middle;whiteSpace=wrap;rounded=0;" vertex="1" parent="1">
          <mxGeometry x="2160" y="664" width="108" height="56" as="geometry" />
        </mxCell>
        <mxCell id="6_bY_sh62_LnZEufbwjD-12" value="" style="swimlane;startSize=20;horizontal=1;containerType=tree;newEdgeStyle={&quot;edgeStyle&quot;:&quot;elbowEdgeStyle&quot;,&quot;startArrow&quot;:&quot;none&quot;,&quot;endArrow&quot;:&quot;none&quot;};rounded=1;shadow=1;strokeWidth=2;fillColor=#dae8fc;strokeColor=#6c8ebf;" vertex="1" parent="1">
          <mxGeometry x="1797.5" y="544" width="280" height="220" as="geometry">
            <mxRectangle x="2319" y="489" width="84" height="24" as="alternateBounds" />
          </mxGeometry>
        </mxCell>
        <mxCell id="6_bY_sh62_LnZEufbwjD-13" value="" style="edgeStyle=elbowEdgeStyle;elbow=vertical;startArrow=none;endArrow=none;rounded=0;" edge="1" parent="6_bY_sh62_LnZEufbwjD-12" source="6_bY_sh62_LnZEufbwjD-15" target="6_bY_sh62_LnZEufbwjD-16">
          <mxGeometry relative="1" as="geometry" />
        </mxCell>
        <mxCell id="6_bY_sh62_LnZEufbwjD-14" value="" style="edgeStyle=elbowEdgeStyle;elbow=vertical;startArrow=none;endArrow=none;rounded=0;" edge="1" parent="6_bY_sh62_LnZEufbwjD-12" source="6_bY_sh62_LnZEufbwjD-15" target="6_bY_sh62_LnZEufbwjD-17">
          <mxGeometry relative="1" as="geometry" />
        </mxCell>
        <UserObject label="辅助型" treeRoot="1" id="6_bY_sh62_LnZEufbwjD-15">
          <mxCell style="whiteSpace=wrap;html=1;align=center;treeFolding=1;treeMoving=1;newEdgeStyle={&quot;edgeStyle&quot;:&quot;elbowEdgeStyle&quot;,&quot;startArrow&quot;:&quot;none&quot;,&quot;endArrow&quot;:&quot;none&quot;};fillColor=#d5e8d4;strokeColor=#82b366;" vertex="1" parent="6_bY_sh62_LnZEufbwjD-12">
            <mxGeometry x="80" y="40" width="120" height="60" as="geometry" />
          </mxCell>
        </UserObject>
        <mxCell id="6_bY_sh62_LnZEufbwjD-16" value="BUFF增益" style="whiteSpace=wrap;html=1;align=center;verticalAlign=middle;treeFolding=1;treeMoving=1;newEdgeStyle={&quot;edgeStyle&quot;:&quot;elbowEdgeStyle&quot;,&quot;startArrow&quot;:&quot;none&quot;,&quot;endArrow&quot;:&quot;none&quot;};fillColor=#dae8fc;strokeColor=#6c8ebf;" vertex="1" parent="6_bY_sh62_LnZEufbwjD-12">
          <mxGeometry x="20" y="140" width="100" height="60" as="geometry" />
        </mxCell>
        <mxCell id="6_bY_sh62_LnZEufbwjD-17" value="heal治疗" style="whiteSpace=wrap;html=1;align=center;verticalAlign=middle;treeFolding=1;treeMoving=1;newEdgeStyle={&quot;edgeStyle&quot;:&quot;elbowEdgeStyle&quot;,&quot;startArrow&quot;:&quot;none&quot;,&quot;endArrow&quot;:&quot;none&quot;};fillColor=#dae8fc;strokeColor=#6c8ebf;" vertex="1" parent="6_bY_sh62_LnZEufbwjD-12">
          <mxGeometry x="160" y="140" width="100" height="60" as="geometry" />
        </mxCell>
        <mxCell id="6_bY_sh62_LnZEufbwjD-21" value="&lt;font style=&quot;font-size: 19px&quot;&gt;否&lt;/font&gt;" style="text;html=1;strokeColor=none;fillColor=none;align=center;verticalAlign=middle;whiteSpace=wrap;rounded=0;" vertex="1" parent="1">
          <mxGeometry x="2281.25" y="544" width="108" height="56" as="geometry" />
        </mxCell>
        <mxCell id="6_bY_sh62_LnZEufbwjD-24" style="edgeStyle=orthogonalEdgeStyle;rounded=0;orthogonalLoop=1;jettySize=auto;html=1;exitX=0.5;exitY=1;exitDx=0;exitDy=0;" edge="1" parent="1" source="6_bY_sh62_LnZEufbwjD-22">
          <mxGeometry relative="1" as="geometry">
            <mxPoint x="2568.5714285714294" y="768" as="targetPoint" />
          </mxGeometry>
        </mxCell>
        <mxCell id="6_bY_sh62_LnZEufbwjD-27" value="" style="edgeStyle=orthogonalEdgeStyle;rounded=0;orthogonalLoop=1;jettySize=auto;html=1;" edge="1" parent="1" source="6_bY_sh62_LnZEufbwjD-22" target="6_bY_sh62_LnZEufbwjD-26">
          <mxGeometry relative="1" as="geometry" />
        </mxCell>
        <mxCell id="6_bY_sh62_LnZEufbwjD-22" value="是否有”攻击型“技能可用" style="rhombus;whiteSpace=wrap;html=1;rounded=1;shadow=1;strokeWidth=2;" vertex="1" parent="1">
          <mxGeometry x="2496" y="545" width="144" height="108" as="geometry" />
        </mxCell>
        <mxCell id="6_bY_sh62_LnZEufbwjD-25" value="&lt;font style=&quot;font-size: 19px&quot;&gt;否&lt;/font&gt;" style="text;html=1;strokeColor=none;fillColor=none;align=center;verticalAlign=middle;whiteSpace=wrap;rounded=0;" vertex="1" parent="1">
          <mxGeometry x="2532" y="664" width="108" height="56" as="geometry" />
        </mxCell>
        <mxCell id="6_bY_sh62_LnZEufbwjD-28" style="edgeStyle=orthogonalEdgeStyle;rounded=0;orthogonalLoop=1;jettySize=auto;html=1;exitX=0.5;exitY=1;exitDx=0;exitDy=0;entryX=0.886;entryY=-0.065;entryDx=0;entryDy=0;entryPerimeter=0;" edge="1" parent="1" source="6_bY_sh62_LnZEufbwjD-26" target="6_bY_sh62_LnZEufbwjD-5">
          <mxGeometry relative="1" as="geometry" />
        </mxCell>
        <mxCell id="6_bY_sh62_LnZEufbwjD-31" value="" style="edgeStyle=orthogonalEdgeStyle;rounded=0;orthogonalLoop=1;jettySize=auto;html=1;" edge="1" parent="1" source="6_bY_sh62_LnZEufbwjD-26" target="6_bY_sh62_LnZEufbwjD-30">
          <mxGeometry relative="1" as="geometry" />
        </mxCell>
        <mxCell id="6_bY_sh62_LnZEufbwjD-26" value="”攻击型“技能&lt;br&gt;范围内有敌军" style="rhombus;whiteSpace=wrap;html=1;rounded=1;shadow=1;strokeWidth=2;" vertex="1" parent="1">
          <mxGeometry x="2760" y="545" width="144" height="108" as="geometry" />
        </mxCell>
        <mxCell id="6_bY_sh62_LnZEufbwjD-29" value="&lt;font style=&quot;font-size: 19px&quot;&gt;否&lt;/font&gt;" style="text;html=1;strokeColor=none;fillColor=none;align=center;verticalAlign=middle;whiteSpace=wrap;rounded=0;" vertex="1" parent="1">
          <mxGeometry x="2688" y="664" width="108" height="56" as="geometry" />
        </mxCell>
        <mxCell id="6_bY_sh62_LnZEufbwjD-30" value="&lt;span&gt;选择血量百分比最低的目标进行攻击&lt;/span&gt;" style="whiteSpace=wrap;html=1;rounded=1;shadow=1;strokeWidth=2;fillColor=#f8cecc;strokeColor=#b85450;" vertex="1" parent="1">
          <mxGeometry x="3084" y="569" width="120" height="60" as="geometry" />
        </mxCell>
        <mxCell id="6_bY_sh62_LnZEufbwjD-44" value="&lt;font style=&quot;font-size: 19px&quot;&gt;是&lt;/font&gt;" style="text;html=1;strokeColor=none;fillColor=none;align=center;verticalAlign=middle;whiteSpace=wrap;rounded=0;" vertex="1" parent="1">
          <mxGeometry x="2640" y="544" width="108" height="56" as="geometry" />
        </mxCell>
        <mxCell id="6_bY_sh62_LnZEufbwjD-45" value="&lt;font style=&quot;font-size: 19px&quot;&gt;是&lt;/font&gt;" style="text;html=1;strokeColor=none;fillColor=none;align=center;verticalAlign=middle;whiteSpace=wrap;rounded=0;" vertex="1" parent="1">
          <mxGeometry x="2923" y="544" width="108" height="56" as="geometry" />
        </mxCell>
      </root>
    </mxGraphModel>
  </diagram>
</mxfile>
